<svg viewBox="0 0 1771 1516" preserveAspectRatio="xMidYMid meet" data-bbox="153.566 168 1476.787 1137" height="1516" width="1771" xmlns="http://www.w3.org/2000/svg" data-type="ugc" role="presentation" aria-hidden="true" aria-label="">
    <g>
        <path fill="#5B642B" d="m1201.375 200.75 2.997-.002C1266.94 200.815 1328.52 215.09 1385 242c.87.413 1.74.827 2.638 1.252 19.657 9.405 38.503 20.253 56.362 32.748l2.106 1.467c14.82 10.368 28.888 21.561 42.085 33.935a257 257 0 0 0 6.645 5.918c4.25 3.704 8.253 7.62 12.226 11.618l2.026 2.013c4.51 4.519 8.75 9.21 12.912 14.049q1.389 1.572 2.781 3.14c20.312 23.11 37.509 48.881 52.219 75.86l1.384 2.499c33.379 60.415 48.84 128.916 50.405 197.563a264 264 0 0 0 .714 13.832c.561 8.25.652 16.47.658 24.735l.015 4.822q.019 6.49.024 12.977.005 4.087.012 8.173.02 12.877.027 25.756.007 14.689.05 29.378.034 11.464.034 22.927c.001 4.529.006 9.058.025 13.586C1630.65 860.02 1617.1 938.443 1583 1011l-1.296 2.764c-16.71 35.28-39.161 67.913-65.438 96.724a224 224 0 0 0-3.739 4.23c-4.903 5.708-10.133 11.037-15.465 16.344l-2.591 2.604c-4.995 4.987-10.096 9.76-15.471 14.334q-1.515 1.316-3.027 2.633c-25.897 22.177-54.156 40.903-83.973 57.367l-2.537 1.402c-42.815 23.465-90.056 40.147-137.463 51.598l-3.727.9c-40.793 9.692-82.323 15.452-124.085 18.787l-2.312.185c-5.29.417-10.581.788-15.876 1.128l-2.232.148c-31.405 2.008-63.08 1.32-94.529.883q-2.169-.03-4.338-.057c-7.366-.094-14.712-.273-22.066-.7a174 174 0 0 0-5.575-.206c-6.66-.16-13.08-.315-18.319-4.85-4.004-4.294-7.29-9.001-10.451-13.936-2.324-3.559-4.91-6.908-7.49-10.282q-1.473-1.969-2.941-3.941c-3.856-5.141-7.814-10.202-11.769-15.267-5.66-7.252-11.243-14.56-16.823-21.873A2809 2809 0 0 0 903 1203.5a5639 5639 0 0 1-13.188-17.21 2176 2176 0 0 0-7.335-9.56c-10.436-13.503-20.676-27.15-30.633-41.01A1501 1501 0 0 0 840 1119.5a2044 2044 0 0 1-15.105-20.73A1696 1696 0 0 0 813 1082.5a2118 2118 0 0 1-15.288-20.972c-5.194-7.208-10.446-14.373-15.712-21.528l-3.488.77c-26.473 5.76-52.426 8.546-79.525 8.47q-3.529.001-7.058.006c-6.406.004-12.812-.004-19.218-.014-6.216-.009-12.433-.006-18.65-.005q-19.05.003-38.102-.016a48824 48824 0 0 0-51.994-.024q-42.186-.007-84.37-.036a225491 225491 0 0 0-109.877-.05l-51.725-.016-2.402-.001c-52.864-.019-105.727-.05-158.591-.084q-.106-22.507-.155-45.016-.022-10.455-.071-20.91c-.034-6.743-.05-13.486-.059-20.23q-.008-3.832-.032-7.665c-.12-19.66.82-38.997 6.067-58.054l.774-2.876c2.376-8.492 5.552-16.366 9.476-24.249l1.684-3.445c5.594-10.93 12.89-20.251 21.195-29.246 1.951-2.124 3.82-4.296 5.684-6.496 3.503-4.008 7.359-7.404 11.437-10.813l2.543-2.203C229.437 805.915 244.565 795.75 260 786l4.445-2.824c9.85-6.248 19.745-12.425 29.64-18.602A5451 5451 0 0 0 322 747a6398 6398 0 0 1 34.096-21.433A3601 3601 0 0 0 374.5 714c7.15-4.526 14.321-9.019 21.5-13.5a5869 5869 0 0 0 31-19.5 6398 6398 0 0 1 34.096-21.433A3601 3601 0 0 0 479.5 648c7.15-4.526 14.321-9.019 21.5-13.5a5869 5869 0 0 0 31-19.5 6398 6398 0 0 1 34.096-21.433A3601 3601 0 0 0 584.5 582a2973 2973 0 0 1 18.408-11.564q3.08-1.928 6.14-3.887c5.572-3.55 11.105-6.753 17.131-9.475 3.909-2.23 7.317-5.25 10.821-8.074l1-23H376v159c-9-1.125-9-1.125-12.218-1.99l-2.231-.592-2.366-.645-2.575-.688c-2.822-.755-5.642-1.518-8.462-2.28l-6.057-1.624q-8.163-2.19-16.324-4.392-8.516-2.293-17.035-4.577-12.233-3.284-24.464-6.572a26291 26291 0 0 0-42.319-11.34l-2.977-.795-14.39-3.844a36557 36557 0 0 1-41.614-11.133l-5.703-1.527q-4.792-1.283-9.581-2.575c-.896-.24-1.792-.478-2.715-.724-5.854-1.587-5.854-1.587-6.969-2.702-.103-1.808-.135-3.62-.14-5.43l-.018-3.574-.003-3.96-.015-4.145q-.019-5.659-.024-11.317l-.012-7.106q-.02-11.164-.027-22.328-.007-12.789-.05-25.579-.033-9.93-.034-19.863 0-5.905-.025-11.809c-.224-51.514 5.72-106.11 42.736-145.264 31.22-31.476 82.063-38.422 124.05-42.375l3.628-.35c24.068-2.068 48.361-2.054 72.5-2.03q5.406.001 10.813-.005 10.518-.005 21.036 0a29104 29104 0 0 0 24.621 0q23.32-.004 46.637.006 19.91.005 39.82-.001a85522 85522 0 0 1 51.498-.004h2.473q8.535.002 17.07-.002 10.428-.004 20.857.003 5.298.005 10.595 0c46.498-.033 46.498-.033 66.639 2.383l3.325.39C753.532 329.3 788.48 340.148 816 367l1.945 1.758c9.578 8.865 16.26 20.69 22.055 32.242 3.713-4.449 6.894-9.2 10.125-14 5.363-7.898 10.913-15.543 16.875-23l2.195-2.746A759 759 0 0 1 876 353l1.263-1.522c7.408-8.896 15.216-17.273 23.428-25.43 1.88-1.87 3.75-3.75 5.62-5.632 6.926-6.934 13.995-13.335 21.689-19.416a264 264 0 0 0 3.285-2.828C952.126 279.998 975.834 265.299 1000 252l2.517-1.397c50.086-27.665 106.66-43.386 163.483-48.603l3.121-.29c10.742-.886 21.48-.953 32.254-.96M884 910c-1.555 1.555-1.44 3.273-1.762 5.426C876.264 953.523 862.27 990.413 831 1015c-12.603 8.993-26.49 15.704-41 21v2q24.669 4.08 49.347 8.11c7.642 1.249 15.284 2.502 22.923 3.767q10.011 1.657 20.027 3.285 5.283.856 10.561 1.737c25.886 4.323 51.587 6.478 77.838 6.38l3.673-.013 3.756-.016 3.924-.01c46.91-.13 93.712-2.991 140.264-8.865l2.541-.316c2.338-.293 4.674-.6 7.01-.91l2.075-.262c3.377-.47 5.16-.953 8.061-2.887l-2.553-.424c-82.034-13.8-156.88-47.511-219.447-102.576l-2.844-2.5c-9.374-8.426-18.185-17.436-27.056-26.385q-3.044-3.063-6.1-6.115"/>
        <path fill="#C5D433" d="m1307.813 276.688 2.996.827c6.245 1.783 12.2 3.992 18.192 6.486q1.959.771 3.921 1.535c34.969 13.838 67.57 34.28 97.079 57.464.988.777 1.977 1.553 2.996 2.352 14.344 11.516 28.259 24.341 39.699 38.777 2.667 3.323 5.449 6.53 8.242 9.746 5.074 5.882 9.877 11.935 14.552 18.138a845 845 0 0 0 5.409 7.015c14.6 18.854 14.6 18.854 20.102 28.972l1.455 2.671c13.79 25.511 25.209 52.209 32.545 80.33q.599 2.145 1.203 4.289c7.662 27.56 10.918 55.838 11.418 84.408.11 5.422.301 10.788.836 16.185 1.621 16.417 1.856 32.765 1.844 49.246q0 4.581.009 9.162.014 10.869.005 21.736-.007 9.8.02 19.6c.28 99.23-7.269 197.944-89.818 323.563a379 379 0 0 0-4.19 5.103c-6.56 7.999-13.77 15.335-21.077 22.645l-1.503 1.506c-5.735 5.733-11.54 11.334-17.747 16.557l-1.827 1.543c-10.352 8.673-21.104 16.725-32.173 24.457l-1.949 1.362c-24.553 17.056-51.581 30.95-79.051 42.638-.725.315-1.45.63-2.196.956-47.819 20.75-99.466 31.513-150.804 39.043l-2.067.305c-26.184 3.832-52.525 5.338-78.933 6.696l-2.271.117c-26.969 1.371-54.32 1.778-81.284.027a66 66 0 0 0-4.66-.12c-3.02-.083-5.221-.534-7.522-2.535-1.809-2.106-3.416-4.28-5.013-6.552l-1.82-2.463a545 545 0 0 1-3.679-5.045c-2.063-2.862-4.176-5.683-6.3-8.501a1080 1080 0 0 1-2.914-3.888c-4.337-5.811-8.785-11.533-13.247-17.248-5.66-7.252-11.244-14.56-16.824-21.873a2809 2809 0 0 0-6.466-8.42l-2.368-3.082a1865 1865 0 0 0-6.14-7.93l-3.617-4.675-1.762-2.254-1.621-2.101-1.458-1.876c-1.034-1.582-1.034-1.582-1.034-3.582q3.062-.04 6.125-.062l3.445-.035c3.415.026 6.774.293 10.176.59 12.039.896 24.126.704 36.191.695h1.996c60.102-.014 120.736-3.127 180.067-13.187l3.906-.648c28.787-4.78 57.224-10.57 85.094-19.352l3.183-.991c39.192-12.287 77.782-28.844 109.817-55.01l1.55-1.242c38.055-30.556 61.97-71.338 72.45-118.758l-1.383 1.111c-10.817 8.65-21.801 16.661-33.617 23.89l-2.057 1.263c-28.075 17.152-57.529 29.993-88.943 39.736l-2.513.789c-13.578 4.206-27.488 6.838-41.487 9.212l-3.486.607c-41.91 7.08-88.02 5.729-129.514-3.607l-3.344-.735c-56.473-12.534-109.13-37.374-153.582-74.556a233 233 0 0 0-4.466-3.584c-7.782-6.163-14.771-12.982-21.761-20.018a1438 1438 0 0 0-5.93-5.916c-7.097-7.09-13.752-14.266-19.917-22.192q-1.429-1.77-2.864-3.539c-29.817-37.569-50.916-79.754-65.136-125.46l-.836-2.643c-22.694-72.51-16.883-154.709 8.836-225.357.34-.94.682-1.878 1.034-2.845C880.733 442.169 915.167 389.64 961.001 351l2.89-2.554c12.479-10.988 25.797-20.979 39.547-30.32l1.806-1.245c2.38-1.582 4.36-2.805 7.188-3.347 2.695-.56 4.4-1.404 6.736-2.834l2.42-1.446 2.6-1.566c12.847-7.559 26.633-14.961 40.813-19.687.946-1.352 1.882-2.712 2.757-4.11 2.994-4.556 6.386-9.034 10.243-12.89 3.459-.623 5.879-.778 8.851 1.285q1.991 1.801 3.934 3.656c7.776 7.227 17.141 12.635 26.215 18.058l1.687-3.375c2.022-3.548 3.48-4.198 7.313-5.625 3.316-2.734 6.387-5.469 8-9.5 1.762-4.405 3.88-7.054 8-9.5 6.253-1.712 12.558-2.38 19-3l3.08-.307c48.616-4.714 96.801 1.03 143.732 13.995"/>
        <path fill="#C0CF32" d="m1307.813 276.688 2.996.827c6.245 1.783 12.2 3.992 18.192 6.486q1.959.771 3.921 1.535c34.969 13.838 67.57 34.28 97.079 57.464.988.777 1.977 1.553 2.996 2.352 14.344 11.516 28.259 24.341 39.699 38.777 2.667 3.323 5.449 6.53 8.242 9.746 4.62 5.358 9.06 10.82 13.3 16.485 2.062 2.75 4.201 5.426 6.368 8.094 9.24 11.57 17.35 24.116 21.395 38.546l-1 2-2.563-2.011-3.437-2.676-1.676-1.318c-4.264-3.309-8.704-6.208-13.324-8.995l2.308 3.192c5.22 7.272 10.327 14.57 14.942 22.246l1.157 1.914c2.593 4.388 2.593 4.388 2.593 6.649h2l1-5 4 5 1.267 1.496c7.793 9.335 9.921 16.66 9.182 28.777-.076.787-.15 1.573-.229 2.384a72 72 0 0 0-.287 4.644c-.323 6.462-2.828 10.242-6.746 15.261-7.404 8.792-7.404 8.792-9.922 19.406l.985 2.531.953 2.594L1524 557c3.867-2.856 7.699-5.698 11.312-8.875C1538 546 1538 546 1541 546c.442 8.254-.72 15.76-2.449 23.819-2.095 9.787-3.825 19.349-4.301 29.369-1.053 17.026-7.543 34.154-17.375 48-5.614 8.018-5.57 14.91-5.087 24.487.376 7.866-.597 14.152-2.951 21.628-1.646 5.369-2.089 10.1-2.087 15.697-.106 7.31-2.235 11.371-7.286 16.645l-2.464 2.356-2.06 2.199c-4.01 4.236-8.358 7.81-13.058 11.258-2.122 1.586-2.122 1.586-3.882 4.543l3 1c-.94 3.352-1.963 6.676-3 10-.2.653-.398 1.307-.603 1.98-3.057 9.929-6.38 17.207-13.397 25.02a379 379 0 0 0-4.13 5.32c-5.906 7.695-11.82 14.302-19.703 20.02-2.505 1.918-4.828 3.98-7.167 6.097l-2.57 2.316a128 128 0 0 0-4.423 4.274c-8.037 7.887-17.512 8.193-28.257 8.16a569 569 0 0 1-8.75-.187c-.346-11.506-.346-11.506 1-16.375 1.278-4.634 1.801-7.948-.313-12.372l-1.687-2.691c-2.539-4.423-3.937-7.361-3-12.562 1.437-2.688 1.437-2.688 3-5 2.952-9.278.695-19.274-1-28.563-3.2-18.5-3.3-30.566 4.41-47.927 6.47-15.27 5.504-32.126-.41-47.51a147 147 0 0 0-3.899-7.743c-2.864-5.87-3.324-12.259-3.562-18.703-.441-2.807-.441-2.807-2.551-5.797-2.536-4.21-2.551-7.938-2.426-12.758l-.021-2.328c.058-5.26 1.102-8.972 3.459-13.672l-1.688-.812c-2.312-1.187-2.312-1.187-4.625-2.875-3.636-1.776-5.83-1.331-9.687-.312l-2 3c-3.95-1.756-7.884-3.973-10.02-7.852-1.493-2.506-2.425-3.669-4.98-5.149-5.963-.74-12.11.01-18 1l-2 2c-1.449.302-2.91.546-4.375.75-2.441.41-2.441.41-4.625 1.25l-2.063 3.125L1316 593c-6.063.975-11.343-.723-17.168-2.44-5.598-1.105-9.515 1.146-14.356 3.698-4.518 1.354-8.332.226-12.582-1.57-26.13-14.307-26.13-14.307-30.09-27.71-1.187-3.305-2.263-4.647-5.387-6.263q-2.098-.929-4.23-1.777c-5.903-2.421-11.303-4.918-14.187-10.937-.465-3.887-.03-7.511.5-11.375.105-.99.21-1.98.32-3 .602-5.305 1.483-10.465 2.776-15.644.924-4.54 1.061-9.616-.596-13.981-1.77-1.486-1.77-1.486-3.938-2.625-2.387-1.36-4.106-2.419-6.062-4.375.242-5.948 2.415-10.7 5-16h6l.812-1.75c1.188-2.25 1.188-2.25 2.625-4.063 1.644-2.302 2.612-4.643 3.68-7.25 2.121-4.656 4.869-9.676 8.883-12.937 1.98-.415 1.98-.415 4.187-.625 5.184-1.071 8.03-3.495 11.363-7.536 2.305-4.516 1.775-8.7 1.492-13.66-.042-3.18-.042-3.18 1.52-6.742 2.451-2.451 4.94-4.24 7.82-6.137 2.461-1.98 3.476-4.414 4.618-7.3 4.762-.367 8.206.612 12.558 2.343 3.331.896 6.006 1.013 9.442.656 2.387-1.863 2.387-1.863 4.625-4.312 11.274-9.146 32.322-8.838 46.375-7.687 4.065 1.816 7.266 4.122 8.914 8.34l.71 2.597.727 2.59q.85 3.23 1.649 6.472l3.75.313c14.948 1.705 28.518 7.897 42.25 13.688l-1-12c6.68-1.733 6.68-1.733 10.16.199l2.277 1.613c6.831 4.622 14.554 4.649 22.563 5.188v-2c5.48-.098 10.587.028 16 1 1.402-1.191 1.402-1.191 1.347-4.594-.07-4.98-2.009-7.993-4.91-11.906l-1.268-1.915c-1.421-2.087-1.421-2.087-4.17-4.586-3.601-.291-3.601-.291-7 0-1.652-1.5-1.652-1.5-3-3-2.178-.25-2.178-.25-4.562 0-5.52.138-10.48-.421-15.437-3-2.116-2.264-2.792-4.027-4-7l-1.563-3.062c-.437-2.937-.437-2.937 1.625-6.25 3.1-2.837 3.871-3.507 7.938-3.687l2.117-.114c6.788-.206 13.232.834 19.883 2.113-2.563-7.99-2.563-7.99-8-14-2.508-1.064-5.04-2.039-7.586-3.007-3.048-1.253-5.188-2.55-7.414-4.993a150 150 0 0 1-1-6c-1.938-2.356-1.938-2.356-4-4-3 1.584-4.873 2.832-6.938 5.563-2.062 2.438-2.062 2.438-5.187 3.313-3.197.868-3.197.868-4.329 4.269-.599 4.225-.03 5.62 2.477 8.994l1.352 1.674c4.625 6.033 4.625 6.033 4.625 8.188l-13 1 2.812 4.125c6.188 9.303 6.188 9.303 6.188 13.875-6.614-.613-10.543-2.565-15.079-7.399-2.217-3.002-3.634-6.107-5.234-9.476-4.51-8.948-12.585-12.148-21.383-16.085-3.22-1.454-6.347-3.058-9.492-4.666q-2.405-1.19-4.812-2.375c.952 4.855 3.373 7.723 7 11 3.492 2.263 7.14 4.109 10.875 5.938l2.953 1.494A690 690 0 0 0 1369 384l-1 2c-16.728-1.096-29.09-9.69-41-21l-1.391 1.208c-3.132 2.704-6.248 5.372-9.61 7.792l-7-6c-2.592 3.025-4.924 5.88-7.062 9.25-1.907 2.707-2.841 3.752-5.937 4.75h-3l.359 2.231.39 2.957c.21 1.444.21 1.444.422 2.918-.232 3.908-1.364 5.203-4.171 7.894-3.208 1.766-3.208 1.766-6.813 3.25l-3.582 1.516c-3.591 1.23-6.823 1.948-10.605 2.234q-1.532-1.469-3-3h-3.25c-4.479 0-6.778-1.054-10.75-3l1-7c-26.322-3.018-52.649-4.927-79-1l-2.893.425c-27.116 4.166-53.938 13.006-77.982 26.263l-2.837 1.558c-12.222 6.818-23.584 14.741-34.288 23.755l-1.584 1.314C1042.072 454.574 1030.9 465.327 1021 478l-2.391 2.946c-7.055 8.852-12.989 18.237-18.61 28.054l-1.395 2.438c-18.581 32.53-18.581 32.53-24.604 68.563 2.315 3.839 2.315 3.839 6 6 2.682.096 5.207.082 7.875-.063 8.704-.428 8.704-.428 12.625 3.063q1.79 1.964 3.5 4a784 784 0 0 0 4.187 3.937c7.282 7.455 7.282 7.455 8.813 12.063-.382 5.002-1.646 9.637-3.063 14.437l-1.098 3.746-.84 2.817c1.414.25 2.831.474 4.25.687l2.391.387c2.455.153 2.455.153 4.293-1.567 4.038-2.946 9.371-1.184 14.067-.508l2.199.243c2.794.497 4.459 1.277 6.11 3.597 2.69 5.15 2.69 5.15 2.69 8.16l2.491-.031c3.733-.042 7.465-.068 11.197-.094l3.92-.05 3.78-.02c1.146-.01 2.293-.02 3.475-.032 3.185.23 5.316.756 8.138 2.227a499 499 0 0 1 3.43 4.348c5.141 5.411 12.62 8.336 19.57 10.653q.04 2.905.062 5.812l.035 3.27-.097 3.918.01 2.578c-.257 7.76-2.752 11.893-7.76 17.672q-1.869 2.256-3.735 4.515l-1.806 2.169c-4.788 5.33-4.788 5.33-6.979 11.917l.457 2.774c.855 6.507.989 12.816.813 19.375l-.051 2.644c-.25 4.298-.564 5.903-3.45 9.293l-2.5 2.063c-1.416 2.832-1.346 5.474-1.562 8.625l-.254 3.601-.183 2.774c-.595.24-1.189.482-1.801.73-2.738 1.12-5.469 2.257-8.2 3.394l-2.832 1.149c-6.686 2.805-13.384 5.912-17.761 11.91l-1.406 1.817h-2l.066 1.737c.51 18.823.51 18.823-5.754 25.575l-2.727 2.695c-4.041 4.677-5.617 10.02-7.527 15.817C1026 829 1026 829 1025 830c-2.02.073-4.042.084-6.063.063l-3.348-.027L1013 830l2 2 11 11-2.874 3.375-1.618 1.898a76 76 0 0 1-3.507 3.726c-3.054-.033-5.97-.566-9-1v9l-3 1c-.602 3.49-.71 6.52 0 10 2.024 2.835 4.288 5.164 6.742 7.633 4.329 4.54 6.03 9.39 7.57 15.367 2.803 9.842 12.249 17.277 20.688 22.5 3 2.5 3 2.5 3.437 6.313l-.437 3.188c-17.843-5.538-38.96-14.307-50.407-29.864-2.335-4.595-3.414-9.361-4.578-14.362-2.055-8.213-6.484-13.544-12.015-19.774a280 280 0 0 1-3.938-4.688l-1.59-1.824c-1.831-3.095-2.631-6.175-3.604-9.624-1.603-5.287-3.736-10.371-5.806-15.49l-1.303-3.273c-4.585-11.816-4.585-11.816-11.947-21.976-4.361-4.645-4.974-7.127-4.937-13.438l-.008-3.988c.133-3.7.133-3.7.692-6.132.479-2.79.248-4.595-.38-7.34l-.615-2.729-.69-2.874-.695-2.963c-1.94-8.074-4.237-15.894-7.18-23.662l-.816-2.375c-3.326-8.227-11.016-13.382-18.906-16.75-4.382-1.756-8.811-3.346-13.277-4.875l-.043-3.917c-.21-9.261-.676-17.254-4.512-25.825-1.376-3.1-2.47-6.184-3.536-9.399-2.753-8.276-6.231-15.941-10.273-23.663-2.85-5.563-2.944-10.394-3.258-16.555-.206-3.641-.206-3.641-1.671-6.797-1.119-6.08 1.272-10.92 3.418-16.594l1.226-3.382c1.559-4.286 3.118-8.565 4.838-12.789 2.499-6.294 3.338-11.514 3.06-18.266l-.054-2.596a416 416 0 0 0-.195-6.216c-2.41-.633-2.41-.633-5-1-1.836 1.333-1.836 1.333-3 3-4.057-.853-5.636-1.466-8.012-4.95a100 100 0 0 1-1.676-3.738l-.895-2.001c-2.505-5.89-3.803-11.77-4.812-18.07-.99-5.397-.99-5.397-4.188-9.667-2.15-2.388-1.936-4.614-2.105-7.762l-.2-3.293-.112-2.52-7 2c-.438-7.33.898-12.509 3.687-19.25l2.246-5.625 1.097-2.703c1.147-2.865 2.181-5.765 3.22-8.672C884.363 435.754 918.283 387.015 961 351l2.89-2.554c12.479-10.988 25.797-20.979 39.547-30.32l1.806-1.245c2.38-1.582 4.36-2.805 7.188-3.347 2.695-.56 4.4-1.404 6.736-2.834l2.42-1.446 2.6-1.566c12.847-7.559 26.633-14.961 40.813-19.687.946-1.352 1.882-2.712 2.757-4.11 2.994-4.556 6.386-9.034 10.243-12.89 3.459-.623 5.879-.778 8.851 1.285q1.991 1.801 3.934 3.656c7.776 7.227 17.141 12.635 26.215 18.058l1.687-3.375c2.022-3.548 3.48-4.198 7.313-5.625 3.316-2.734 6.387-5.469 8-9.5 1.762-4.405 3.88-7.054 8-9.5 6.253-1.712 12.558-2.38 19-3l3.08-.307c48.616-4.714 96.801 1.03 143.732 13.995"/>
        <path fill="#C9D833" d="M386.96 382.84q6.053-.005 12.105-.016 13.19-.02 26.381-.024 8.259-.005 16.517-.012 22.932-.019 45.865-.026h5.917l5.94-.002h2.976q23.853-.009 47.708-.046 24.576-.035 49.154-.037 13.764.002 27.528-.025 11.722-.023 23.443-.012 5.963.008 11.925-.011c18.057-.061 35.69.704 53.58 3.371q3.441.481 6.881.958c19.116 2.885 37.37 10.338 51.12 24.042l1.934 1.863C788.929 426.38 793.559 446.99 796 465l.493 3.577c1.357 10.347 1.818 20.507 1.808 30.935l.013 4.88q.01 5.077.002 10.153-.007 5.13.02 10.259c.208 39.422-1.703 75.431-30.774 105.071-12.19 12.114-26.13 21.884-40.562 31.125l-2.13 1.369c-10.228 6.557-20.576 12.909-30.965 19.206-9.071 5.506-18.066 11.13-27.057 16.765-8.07 5.056-16.17 10.061-24.271 15.067q-6.54 4.045-13.077 8.093l-5.25 3.25-2.625 1.625-7.875 4.875-2.624 1.624-5.262 3.258q-6.47 4.004-12.938 8.013a7915 7915 0 0 1-25.438 15.702 4404 4404 0 0 0-31.793 19.715 5454 5454 0 0 1-27.14 16.858q-3.81 2.357-7.618 4.717a7778 7778 0 0 1-25.45 15.71 4404 4404 0 0 0-31.792 19.715 5461 5461 0 0 1-27.118 16.845q-6.54 4.045-13.077 8.093l-5.25 3.25-2.625 1.625-10.501 6.5-5.238 3.243a29698 29698 0 0 1-13.312 8.238l-2.734 1.69-5.035 3.114c-7.952 4.92-15.875 9.884-23.805 14.84l394 1V791c10.124 2.25 10.124 2.25 14.598 3.707l3.117 1.009 3.347 1.097 5.48 1.779 6.04 1.968c4.836 1.578 9.676 3.145 14.516 4.713l10.527 3.415 2.518.816a6676 6676 0 0 1 19.434 6.338q3.788 1.241 7.571 2.49l2.35.768c5.387 1.785 5.387 1.785 6.502 2.9.105 1.985.138 3.974.145 5.962l.02 3.88.003 4.244.01 4.366q.009 4.602.007 9.205 0 4.67.02 9.34c.146 33.266.146 33.266-2.205 49.003l-.443 3.066a160 160 0 0 1-1.307 7.184l-.508 2.494c-1.704 7.85-4.336 14.982-7.742 22.256l-1.402 3.016c-8.888 17.627-24.204 27.451-42.344 33.652-21.952 7.116-43.947 8.488-66.869 8.452l-6.28.003q-8.595.002-17.192-.007-9.282-.005-18.564-.002-16.071 0-32.142-.008-16.848-.01-33.698-.011h-2.119l-10.654-.001q-37.7-.004-75.4-.019-36.618-.014-73.236-.02h-2.282l-71.037-.013Q288.891 988.026 218 988q-.07-11.058-.104-22.117-.014-5.136-.047-10.273c-.026-3.95-.036-7.899-.044-11.848l-.032-3.673c0-7.259.658-14.003 2.227-21.089l.789-3.793c9.146-37.14 41.59-59.627 72.628-78.622 4.818-2.956 9.604-5.963 14.395-8.96l3.067-1.914a2366 2366 0 0 0 20.308-12.836c8-5.108 16.047-10.136 24.126-15.12C364.25 792.239 373.127 786.624 382 781q4.593-2.908 9.187-5.812l2.343-1.482a4143 4143 0 0 1 19.282-12.081c7.818-4.877 15.61-9.79 23.375-14.75 8-5.108 16.047-10.136 24.126-15.12 8.152-5.031 16.252-10.143 24.344-15.271q5.918-3.746 11.843-7.484 7.04-4.444 14.074-8.894c9.817-6.21 19.658-12.38 29.511-18.532A5464 5464 0 0 0 568 664c16.322-10.332 32.697-20.577 49.09-30.797 9.623-6.003 19.229-12.03 28.785-18.14 9.19-5.875 18.46-11.612 27.769-17.295C681.51 592.956 689.237 587.99 697 583l1-118H315v141c-8.996-1.124-8.996-1.124-12.926-2.234l-2.633-.733-2.754-.783-5.89-1.64-2.96-.827c-4.122-1.137-8.26-2.21-12.4-3.283-6.573-1.71-13.103-3.542-19.625-5.437-9-2.616-18.063-4.931-27.17-7.147l-2.935-.717-2.61-.63C221 582 221 582 219 581q-.106-18.714-.156-37.429-.02-8.694-.07-17.388-.048-8.423-.059-16.845-.008-3.18-.032-6.36c-.24-32.192 1.988-69.293 25.317-93.978 23.124-20.91 65.407-22.992 95-25l3.315-.248c14.865-1.025 29.753-.909 44.645-.912"/>
        <path fill="#5A632A" d="M1409 350c3.212 2.79 4.852 4.247 5.688 8.5 1.543 4.116 2.32 4.387 6.124 6.25q2.585 1.147 5.188 2.25c5.205 2.715 8.854 6.456 11 12v4l-3.75.063-2.11.035c-2.14-.098-2.14-.098-4.097-.594-5.036-1.242-12.193-1.358-17.043.496-2.698 1.872-2.698 1.872-4 5 .714 4.524 2.476 8.214 5 12 5.813 2.716 11.542 3.3 17.871 2.813 2.129.187 2.129.187 3.477 1.687L1434 406l3.316-.25c3.684.25 3.684.25 5.281 1.516 1.583 1.839 2.968 3.733 4.34 5.734l1.495 1.965c3.456 4.841 4.29 8.108 3.568 14.035l-2 2a96 96 0 0 1-8.125-.875l-2.285-.316c-1.865-.26-3.728-.533-5.59-.809l1 3q-2.798-.362-5.594-.734c-2.402-.297-2.402-.297-4.812-.344-6.328-.28-9.95-2.148-15.188-5.621-3.663-1.98-6.329-1.754-10.406-1.301l.5 1.5c.707 3.534.56 6.897.5 10.5-3.72-.607-6.736-1.679-10.125-3.312-9.373-4.337-18.442-7.196-28.59-9.075L1358 423l-2.309-.32c-1.691-.68-1.691-.68-2.886-2.535l-.93-2.332-1.004-2.458a123 123 0 0 1-1.934-5.73c-.96-2.687-1.687-3.915-3.937-5.625-11.57-3.857-33.43-1.67-44.395 3.025-2.805 1.723-5.049 3.735-7.316 6.112C1291 415 1291 415 1287.496 415.363c-3.009-.312-5.275-.756-8.059-1.863-3.616-1.32-6.547-1.8-10.437-1.5l-1.187 2.75c-1.905 3.416-3.584 5.098-6.813 7.25h-2l-.937 1.875L1256 428q.245 3.25.5 6.5c.03 5.693-.672 8.827-4.312 13.25-4.86 4.72-9.53 5.976-16.188 6.25l-.687 2.563c-1.318 3.451-2.89 5.735-5.086 8.644-1.862 2.72-2.939 5.768-4.227 8.793-1.812 2.938-1.812 2.938-4 5-3.25.313-3.25.313-6 0l-.312 2.688c-.688 3.312-.688 3.312-2.25 5.875-1.681 2.85-2.104 4.192-1.438 7.437 2.41 2.342 4.804 3.893 7.75 5.5 2.25 1.5 2.25 1.5 3.063 3.188.506 6.241.071 11.69-1.25 17.812-1.13 5.686-2.045 11.35-2.563 17.125l-.375 3.852c.47 4.423 2.01 6.778 5.375 9.523 3.497 2.11 7.203 3.75 10.938 5.39 4.062 1.953 6.343 3.278 7.91 7.626q.579 1.99 1.152 3.984c6.318 11.376 20.955 20.833 33 25 5.298.555 9.407-1.55 14-4 4.095-1.21 6.75-.76 10.813.438 7.023 1.853 7.023 1.853 14.187 1.562a749 749 0 0 0 4-6c2.331-.832 4.528-1.237 6.977-1.578 2.24-.275 2.24-.275 4.023-2.422 5.87-1.178 12.051-2.087 18-1 3.997 2.719 6.257 6.083 9 10 1.939 1.622 3.795 2.756 6 4l.563-1.937c1.437-2.063 1.437-2.063 4.5-3.188 5.542.176 8.668 2.785 12.937 6.125l-.977 2.938c-1.24 4.366-1.39 8.544-1.398 13.062l-.074 2.328c-.02 4.03.265 6.817 2.41 10.277 2.277 3.791 2.67 6.337 3.039 10.707.856 7.667 2.832 13.785 6.563 20.5 5.877 13.033 7.525 31.126 2.714 44.684-1.603 3.973-3.448 7.803-5.363 11.633-2.752 5.636-3.299 10.582-3.289 16.746l-.004 2.606c.129 8.176 1.483 16.02 2.94 24.048 1.795 10.018 3.32 19.072-1.561 28.471q-.572 2.086-1.117 4.18c-1.875 5.706-5.404 9.132-9.696 13.195l-2.3 2.233c-6.083 5.82-12.417 11.187-19.207 16.161a405 405 0 0 0-4.993 3.735c-17.883 13.345-38.43 24.603-59.687 31.496l-3.312 1.125L1284 857l-3.375 1.125L1278 859v-3h-5v5l-6 1 1-4-4 1-1 4c-58.685 16.122-123.32 3.623-175.63-25.623a234 234 0 0 1-30.237-20.932 62 62 0 0 0-6.89-4.703c-3.791-2.406-7.24-4.603-9.243-8.742-1.016-7.672.486-15.477 2-23h2l.625-1.687c5.599-9.417 19.65-14.21 29.68-16.903L1077 761l-.14-2.633c-.332-10.59-.332-10.59 1.953-14.117C1081 742 1081 742 1084 741c.03-3.417.047-6.833.063-10.25l.025-2.875.01-2.89.013-2.973c-.052-3.03-.052-3.03-.59-6.057-.92-5.894-.888-9.293 2.522-14.326a175 175 0 0 1 4.145-5.067l2.08-2.6c2.605-3.243 5.148-6.397 8.142-9.29 2.732-4.592 2.546-9.738 2.84-14.985l.234-3.4q.282-4.142.516-8.287l-2.715-.355c-7.471-1.466-14.738-6.326-19.348-12.332-2.197-2.624-2.687-2.78-5.937-3.313-2.17-.147-4.342-.247-6.516-.316l-3.789-.127-3.945-.12-3.992-.13q-4.879-.159-9.758-.307a652 652 0 0 1-2-3.875l-1.125-2.18C1044 633 1044 633 1044 631q-3.061-.508-6.125-1l-3.445-.562c-3.213-.41-6.198-.63-9.43-.438-.96.773-.96.773-1.937 1.563C1021 632 1021 632 1017.375 631.75 1014 631 1014 631 1012 630c.459-5.136 1.3-9.32 3.379-14.043 1.1-3.468 1.115-5.97-.524-9.246-8.06-11.327-8.06-11.327-18.855-19.711-1.838.08-3.676.162-5.512.27-10.847.524-10.847.524-15.05-3.207-1.861-1.963-2.435-3.28-2.445-5.989 4.402-48.508 39.959-99.117 75.816-130.535 2.694-2.23 5.43-4.392 8.191-6.539l3.012-2.422c8.24-6.572 16.915-12.226 25.988-17.578l2.293-1.364c13.05-7.696 26.444-13.56 40.707-18.636l2.447-.886c34.933-12.485 85.656-20.08 121.553-8.114v7c3.455 1.348 5.946 2 9.688 1.938L1266 401l1.46 1.535L1269 404c7.505-.953 17.328-3.398 22.84-8.805 1.484-2.809 1.46-4.787 1.348-7.945l-.083-2.984L1293 382l3.688-1.5c4.275-2.104 5.962-4.56 8.214-8.66 1.333-2.234 2.87-3.52 5.098-4.84l7 6 9-9c4.199 3.13 8.354 6.284 12.438 9.563 8.802 6.816 18.202 11.583 29.562 11.437l-1.709-.867c-22.681-11.63-22.681-11.63-26.291-19.133.44-2.123.44-2.123 1-4q6.31 3.044 12.598 6.134 2.138 1.047 4.283 2.08c2.061.994 4.114 2.004 6.166 3.016l1.926.917c6.35 3.173 9.02 7.642 12.277 13.728 3.831 6.648 8.142 12.308 15.75 14.563l3 .562c-1.874-4.617-3.773-8.917-6.75-12.937C1388 386 1388 386 1388 384c2.995-.872 5.636-1.108 8.75-1.062l2.422.027L1401 383a3004 3004 0 0 0-3.312-5.25l-1.864-2.953c-1.724-2.752-1.724-2.752-3.574-4.938-1.25-1.859-1.25-1.859-.937-5.359 2.044-4.24 3.565-4.789 7.726-6.531 2.78-1.373 4.148-3.508 5.961-5.969 2.25-1.312 2.25-1.312 4-2"/>
        <path fill="#FEFEFE" d="M1285.738 280.867c3.755.008 7.507.064 11.262.133l3.14-.055c7.82.146 12.556 3.074 18.868 7.297 4.142 2.433 6.328 2.708 10.992 1.758a102 102 0 0 0 3-3c4.23.403 7.612 1.537 11.422 3.37l3.078 1.475 3.25 1.592 3.39 1.652c35.874 17.617 69.98 40.162 98.86 67.91l1.629 1.563c6.44 6.217 12.499 12.542 18.066 19.567 2.667 3.322 5.449 6.53 8.242 9.746 4.62 5.357 9.06 10.82 13.301 16.484 2.061 2.75 4.2 5.426 6.367 8.094 9.24 11.571 17.35 24.116 21.395 38.547l-1 2-2.563-2.012-3.437-2.676-1.676-1.318c-4.264-3.308-8.704-6.208-13.324-8.994l2.308 3.191c5.221 7.272 10.327 14.57 14.942 22.246l1.158 1.915C1521 475.74 1521 475.74 1521 478h2l1-5 4 5 1.267 1.496c7.793 9.335 9.922 16.66 9.182 28.777l-.228 2.384a72 72 0 0 0-.288 4.644c-.322 6.462-2.828 10.242-6.746 15.261-7.404 8.792-7.404 8.792-9.922 19.407l.985 2.53.953 2.595L1524 557c3.867-2.857 7.7-5.699 11.312-8.875C1538 546 1538 546 1541 546c.442 8.254-.72 15.76-2.448 23.818-2.095 9.787-3.826 19.35-4.302 29.37-1.053 17.025-7.543 34.153-17.375 48-5.614 8.017-5.57 14.91-5.087 24.486.377 7.866-.597 14.152-2.95 21.628-1.647 5.37-2.09 10.1-2.088 15.698-.106 7.309-2.235 11.37-7.285 16.644L1497 728l-2.059 2.199c-4.01 4.236-8.358 7.81-13.058 11.258-2.123 1.586-2.123 1.586-3.883 4.543l3 1c-.94 3.353-1.963 6.676-3 10l-.602 1.98c-3.058 9.93-6.381 17.207-13.398 25.02a379 379 0 0 0-4.13 5.32c-5.905 7.695-11.82 14.302-19.702 20.02-2.506 1.918-4.829 3.98-7.168 6.097l-2.57 2.317a128 128 0 0 0-4.422 4.273c-8.038 7.888-17.512 8.193-28.258 8.16A569 569 0 0 1 1389 830c-.345-11.506-.345-11.506 1-16.375 1.278-4.634 1.801-7.948-.313-12.371l-1.687-2.692c-2.539-4.422-3.936-7.361-3-12.562 1.437-2.688 1.437-2.688 3-5 2.952-9.278.695-19.273-1-28.563-3.2-18.5-3.3-30.566 4.41-47.927 6.47-15.27 5.504-32.126-.41-47.51a147 147 0 0 0-3.899-7.742c-2.864-5.871-3.324-12.26-3.562-18.704-.441-2.807-.441-2.807-2.551-5.796-2.536-4.21-2.551-7.94-2.426-12.758l-.021-2.328c.058-5.26 1.103-8.972 3.459-13.672l-1.688-.813C1378 594 1378 594 1375.687 592.312c-3.636-1.776-5.83-1.331-9.687-.312l-2 3c-3.95-1.756-7.884-3.973-10.02-7.852-1.492-2.506-2.425-3.669-4.98-5.148-5.962-.74-12.11.008-18 1l-2 2c-1.449.302-2.91.545-4.375.75-2.441.41-2.441.41-4.625 1.25l-2.063 3.125L1316 593c-6.063.974-11.343-.724-17.168-2.442-5.598-1.104-9.514 1.147-14.356 3.7-4.518 1.354-8.332.225-12.582-1.57-26.13-14.308-26.13-14.308-30.09-27.712-1.186-3.304-2.263-4.645-5.386-6.261q-2.1-.93-4.23-1.778c-5.904-2.42-11.304-4.918-14.188-10.937-.465-3.887-.03-7.511.5-11.375l.32-3c.602-5.305 1.483-10.465 2.777-15.644.923-4.54 1.06-9.616-.597-13.981-1.77-1.486-1.77-1.486-3.938-2.625-2.386-1.36-4.106-2.418-6.062-4.375.242-5.948 2.415-10.7 5-16h6l.812-1.75c1.188-2.25 1.188-2.25 2.625-4.063 1.644-2.302 2.612-4.643 3.68-7.25 2.121-4.655 4.87-9.676 8.883-12.937 1.98-.414 1.98-.414 4.187-.625 5.185-1.071 8.03-3.495 11.364-7.535 2.304-4.517 1.774-8.7 1.492-13.66-.043-3.18-.043-3.18 1.52-6.743 2.45-2.451 4.939-4.239 7.82-6.136 2.46-1.98 3.476-4.415 4.617-7.301 4.762-.367 8.207.612 12.558 2.344 3.331.895 6.006 1.012 9.442.656 2.387-1.864 2.387-1.864 4.625-4.313 11.274-9.146 32.322-8.837 46.375-7.687 4.065 1.816 7.266 4.122 8.914 8.34l.71 2.597.727 2.59q.85 3.23 1.649 6.473l3.75.312c14.948 1.705 28.518 7.897 42.25 13.688l-1-12c6.68-1.732 6.68-1.732 10.16.199l2.277 1.613c6.832 4.623 14.554 4.649 22.563 5.188v-2c5.48-.098 10.588.028 16 1 1.403-1.191 1.403-1.191 1.347-4.594-.07-4.98-2.008-7.993-4.91-11.906l-1.267-1.914c-1.422-2.088-1.422-2.088-4.17-4.586-3.602-.292-3.602-.292-7 0-1.653-1.5-1.653-1.5-3-3-2.18-.25-2.18-.25-4.563 0-5.52.137-10.48-.422-15.437-3-2.116-2.265-2.791-4.028-4-7l-1.563-3.063c-.437-2.937-.437-2.937 1.625-6.25 3.1-2.836 3.872-3.506 7.938-3.687l2.117-.113c6.788-.207 13.232.833 19.883 2.113-2.563-7.99-2.563-7.99-8-14-2.508-1.064-5.04-2.04-7.586-3.008-3.047-1.252-5.188-2.55-7.414-4.992a150 150 0 0 1-1-6c-1.937-2.357-1.937-2.357-4-4-3 1.583-4.873 2.831-6.938 5.562C1400 359 1400 359 1396.875 359.875c-3.197.868-3.197.868-4.328 4.27-.6 4.225-.031 5.62 2.476 8.993l1.352 1.674C1401 380.845 1401 380.845 1401 383l-13 1 2.812 4.125C1397 397.428 1397 397.428 1397 402c-6.614-.613-10.543-2.565-15.078-7.399-2.218-3.002-3.634-6.107-5.235-9.476-4.51-8.947-12.585-12.148-21.383-16.085-3.22-1.453-6.347-3.057-9.492-4.665q-2.405-1.192-4.812-2.375c.952 4.854 3.373 7.722 7 11 3.492 2.262 7.14 4.108 10.875 5.937l2.953 1.494A690 690 0 0 0 1369 384l-1 2c-16.728-1.097-29.09-9.692-41-21-.46.398-.918.796-1.39 1.207-3.133 2.704-6.25 5.373-9.61 7.793l-7-6c-2.593 3.024-4.924 5.88-7.063 9.25-1.907 2.706-2.841 3.751-5.937 4.75h-3l.36 2.23.39 2.957.422 2.918c-.232 3.908-1.364 5.204-4.172 7.895-3.207 1.765-3.207 1.765-6.813 3.25l-3.582 1.515c-3.591 1.23-6.823 1.948-10.605 2.235q-1.53-1.47-3-3h-3.25c-4.479 0-6.778-1.054-10.75-3l.07-2.344c.134-7.717-.093-13.983-3.82-20.906L1247 373c.922-2.172.922-2.172 2-4 10.372.696 20.675 1.806 31 3 1.747-3.243 2.822-6.133 2.8-9.895-1.8-4.735-7.523-6.883-11.8-9.105l1-4 3.312-.625c4.67-1.741 4.538-3.045 6.688-7.375 1.81-2.198 3.823-4.154 5.875-6.125l1.566-1.551A106 106 0 0 1 1299 325l-1.563-1.75c-1.437-2.25-1.437-2.25-1.125-4.5L1297 317c2.966 1.326 4.889 2.782 7.144 5.097 4.29 3.764 8.04 3.644 13.543 3.34l2.549-.056c3.71-.11 7.206-.236 10.764-1.381 1.958-2.546 2.002-3.958 1.812-7.188.254-5.168 2.46-8.516 5.188-12.812-2.417-.172-2.417-.172-5 0l-2 2.062c-2 1.938-2 1.938-4.25 1.938-7.18-2.611-11.877-5.704-17.086-11.39-1.518-1.842-1.518-1.842-3.664-1.61-.903 2.253-.903 2.253-1 5 1.864 2.51 1.864 2.51 4.437 4.812 4.404 4.547 4.404 4.547 5.164 7.614-.039 2.199-.039 2.199-.601 5.574-5.285-.088-5.285-.088-8-1-1.946-2.224-2.8-4.248-4-7l-2.633.543c-9.359 1.727-9.359 1.727-13.867.52-3.953-3.262-6.95-6.208-7.95-11.391-.296-6.492 1.554-11.915 4.45-17.672 1-1 1-1 3.738-1.133"/>
        <path fill="#FEFEFE" d="M887 484c2.438 1.5 2.438 1.5 4 3-.54 3.938-2.317 5.548-5.187 8.188-6.18 6.021-11.396 11.656-11.868 20.593.086 3.472.494 6.791 1.055 10.219l1.938-1.5c4.102-2.01 7.576-1.764 12.062-1.5-.222 6.887-1.796 10.886-5.5 16.656-3.545 5.54-5.516 10.716-4.5 17.344.845 2.433 1.9 4.663 3 7v3l2.047-1.129 2.703-1.433 2.672-1.442c2.785-1.076 3.848-1.061 6.578.004v3c3.795-2.221 6.496-4.424 9.313-7.812 4.067-4.775 8.631-10.052 14.863-11.797 3.796-.258 5.616.435 8.511 2.859L931 552c4.891 4.377 9.687 7.02 16.313 7.125 5.922.565 9.005 4.184 13.05 8.254 2.728 2.701 5.547 5.304 8.352 7.925 9.1 8.511 9.1 8.511 11.285 10.696 1.79-.08 3.582-.164 5.371-.27 10.865-.522 10.865-.522 15.129 3.27q1.79 1.966 3.5 4a784 784 0 0 0 4.188 3.938c7.282 7.454 7.282 7.454 8.812 12.062-.381 5.003-1.645 9.638-3.062 14.438l-1.098 3.746L1012 630c1.413.25 2.83.475 4.25.688l2.39.386c2.455.154 2.455.154 4.294-1.566 4.037-2.947 9.37-1.185 14.066-.508l2.2.242c2.793.497 4.458 1.278 6.109 3.598 2.691 5.15 2.691 5.15 2.691 8.16.822-.01 1.644-.02 2.491-.032 3.732-.041 7.464-.067 11.197-.093 1.293-.017 2.587-.034 3.92-.05l3.779-.02 3.475-.032c3.185.23 5.316.755 8.138 2.227a499 499 0 0 1 3.43 4.348c5.142 5.41 12.62 8.335 19.57 10.652q.04 2.906.063 5.813l.035 3.269L1104 671l.01 2.579c-.256 7.76-2.752 11.892-7.76 17.671q-1.869 2.256-3.734 4.516l-1.806 2.168c-4.788 5.331-4.788 5.331-6.98 11.918l.457 2.773c.856 6.508.99 12.817.813 19.375l-.05 2.645c-.25 4.297-.565 5.902-3.45 9.293L1079 746c-1.416 2.833-1.346 5.475-1.562 8.625l-.254 3.602L1077 761l-1.8.731c-2.739 1.12-5.47 2.257-8.2 3.394l-2.832 1.148c-6.686 2.806-13.384 5.912-17.762 11.911L1045 780h-2l.067 1.737c.51 18.823.51 18.823-5.755 25.576l-2.726 2.695c-4.042 4.676-5.617 10.02-7.527 15.816C1026 829 1026 829 1025 830c-2.02.072-4.042.084-6.062.063l-3.348-.028L1013 830l2 2 11 11-2.875 3.375-1.617 1.898A76 76 0 0 1 1018 852c-3.054-.033-5.969-.567-9-1v9l-3 1c-.601 3.489-.709 6.519 0 10 2.024 2.835 4.289 5.164 6.742 7.633 4.33 4.539 6.03 9.39 7.57 15.367 2.804 9.841 12.25 17.277 20.688 22.5 3 2.5 3 2.5 3.438 6.313L1044 926c-17.843-5.537-38.96-14.307-50.406-29.863-2.335-4.596-3.415-9.362-4.579-14.362C986.961 873.56 982.531 868.23 977 862a280 280 0 0 1-3.937-4.687l-1.59-1.825c-1.832-3.094-2.632-6.174-3.605-9.623-1.602-5.287-3.735-10.372-5.806-15.49l-1.302-3.273c-4.586-11.816-4.586-11.816-11.947-21.977-4.362-4.644-4.974-7.127-4.938-13.437l-.008-3.989c.133-3.699.133-3.699.693-6.132.478-2.79.247-4.595-.38-7.34l-.616-2.728-.689-2.874-.695-2.963c-1.941-8.074-4.238-15.895-7.18-23.662l-.816-2.375c-3.327-8.227-11.017-13.382-18.907-16.75-4.382-1.756-8.81-3.347-13.277-4.875l-.043-3.918c-.21-9.261-.676-17.254-4.512-25.824-1.375-3.1-2.47-6.185-3.535-9.4-2.753-8.275-6.232-15.94-10.273-23.663-2.85-5.563-2.945-10.394-3.258-16.554-.207-3.642-.207-3.642-1.672-6.797-1.118-6.08 1.273-10.92 3.418-16.594l1.227-3.383c1.558-4.286 3.118-8.564 4.837-12.788 2.499-6.295 3.339-11.515 3.061-18.266l-.055-2.596A416 416 0 0 0 891 572c-2.41-.632-2.41-.632-5-1-1.835 1.334-1.835 1.334-3 3-4.057-.853-5.635-1.465-8.012-4.95a100 100 0 0 1-1.676-3.737l-.895-2.002c-2.504-5.89-3.802-11.77-4.812-18.069-.99-5.398-.99-5.398-4.187-9.668-2.15-2.387-1.936-4.614-2.106-7.761l-.199-3.293L861 522l-7 2c-.48-7.551 1.058-13.03 3.875-20l1.105-2.887c2.735-6.97 2.735-6.97 5.02-8.113l1 9 1.066-2.195c4.79-9.378 9.637-16.584 20.934-15.805"/>
        <path fill="#8B9A40" d="M211.75 1126.688c7.73 5.682 13.555 12.567 19.188 20.25 16.082 21.857 40.82 39.67 68.062 44.063 3.257.232 6.486.236 9.75.187l2.496-.002c3.15-.023 6.09-.05 9.186-.68 2.705-.532 5.235-.68 7.99-.752l3.11-.1q3.195-.09 6.39-.171c12.644-.295 12.644-.295 23.336-6.315 2.71-3.372 4.643-7.172 6.68-10.972 3.325-6.038 7.398-10.974 14.062-13.195 12.081-.85 12.081-.85 16.75 1.562 4.357 1.927 7.667 1.3 12.25.438 3.761 11.284-.523 23.254-3.98 34.066-2.518 7.88-4.417 15.796-6.094 23.893-2.573 11.967-6.557 22.377-17.113 29.521-10.597 5.56-21.426 3.61-32.452.312-6.235-2.093-12.203-4.905-18.216-7.554-23.61-10.365-48.8-14.793-74.145-18.738-78.874-12.278-78.874-12.278-95.812-35.313-8.41-12.884-11.5-26.472-8.504-41.652 3.31-10.676 8.757-19.013 18.691-24.348 12.412-4.13 27.512-1.235 38.375 5.5"/>
        <path fill="#8C9A41" d="M745.95 1060.39c7.903 6.202 10.685 14.738 11.895 24.43q.34 3.15.656 6.304c.785 7.23 1.662 14.326 3.187 21.438 1.74 8.114 1.375 15.245.313 23.437l-2-1.062c-3.232-1.01-5.448-.755-8.754-.242-6.59.894-12.603 1.241-18.246-2.696-4.784-4.544-6.934-9.942-9.473-15.976-1.942-3.844-3.866-6.117-7.652-8.184-4.232-1.236-8.508-1.727-12.875-2.277-6.157-.815-12.165-1.725-18.188-3.25-19.06-4.613-37.434 3.005-53.687 12.562-7.248 4.657-13.309 10.202-19.281 16.375-9.669 9.966-18.738 17.543-33.13 18.711-8.04.116-15.609-1.509-21.714-6.96-6.26-7.192-8.626-17.16-8.285-26.532 1.434-12.417 7.66-22.66 17.285-30.469 22.037-14.905 53.916-13.827 79.451-15.117 19.784-1.009 38.989-2.612 57.953-8.648 29.85-9.44 29.85-9.44 42.545-1.844"/>
        <path fill="#FDFDFC" d="M1061 300c-1.277 4.223-2.672 7.12-5 11l13-2a255 255 0 0 1-.312 17.313l-.176 3.488c-.545 3.404-1.688 5.324-3.512 8.199.833 2.083.833 2.083 2 4-.348 1.828-.348 1.828-1 4l-.613 2.324-.7 2.363-.675 2.387c-1.012 1.926-1.012 1.926-2.93 2.82C1059 356 1059 356 1056 354l-1-3c-1.874-.802-1.874-.802-4.062-1.187-.734-.16-1.467-.318-2.223-.481L1047 349a592 592 0 0 1 2.813-3.375l1.582-1.898C1053 342 1053 342 1056 340l-3.516.035c-8.885.061-17.639-.064-26.484-1.035-.752 4.957-1.4 9.43 0 14.313.962 3.546 1.075 5.248 0 8.687-2.687 1.125-2.687 1.125-6 2l-2.312-1c-4.186-1.558-7.489-.145-11.688 1l-2.957.633-2.98.68-2.778.613c-2.49.888-2.49.888-3.508 3.418L993 372c-1.001 3.02-1.976 5.515-4 8-2.032.438-2.032.438-4.445.578-6.862 1.153-10.872 5.638-15.49 10.478a232 232 0 0 1-4.381 4.43c-5.262 5.317-9.378 10.309-11.684 17.514l-3.684-.41c-2.211-.067-2.211-.067-4.316.41-2.172 2.247-3.5 3.948-5.062 6.563a604 604 0 0 1-2.555 3.886l-1.23 1.88c-1.864 2.701-4.11 4.864-6.497 7.093-3.12 2.972-5.884 6.283-8.656 9.578l-1.91 2.066c-3.038 4.264-4.851 8.923-6.84 13.747l-1.246 2.966Q909.49 464.385 908 468h-1c.45-6.88 1.679-13.34 3.379-20.02.576-2.766.74-5.166.621-7.98-8.404-1.093-15.068-1.17-23 2 .609-2.85 1.471-5.101 2.934-7.617l1.2-2.067 1.303-2.191 1.356-2.286c4.353-7.24 9.113-14.105 14.207-20.839l1.348-1.785c5.422-7.134 11.054-13.964 17.168-20.52a264 264 0 0 0 5.785-6.511c3.711-4.257 7.633-8.266 11.636-12.247l2.014-2.025c4.519-4.51 9.21-8.75 14.049-12.912q1.572-1.389 3.14-2.781c12.453-10.942 25.73-20.91 39.485-30.156.621-.42 1.242-.839 1.883-1.27C1009.747 314 1009.747 314 1012 314c.621 7.703-1.126 12.372-5 19l1.828-1.426c.8-.622 1.599-1.245 2.422-1.887l2.39-1.863L1016 326l2.074-1.707C1020 323 1020 323 1023.563 322.625c3.547-.25 3.547-.25 5.187-2.875q1.228-2.7 2.375-5.437c2.202-2.717 2.81-2.665 6.125-3.188 3.909-.648 5.575-1.59 8.188-4.562 4.003-4.511 9.515-6.563 15.562-6.563"/>
        <path fill="#FEFEFD" d="M1140 1129c4.075 4.754 6.028 8.813 6.781 15.02l.364 2.85.355 2.943c.913 7.758.913 7.758 2.574 15.378.997 4.1 1.259 7.741 1.238 11.934l.05 2.05c.004 4.692-.9 7.848-3.362 11.825-7.34 7.013-14.21 9.043-24.148 9.21-18.051.35-18.051.35-35.813 3.297-2.351.568-4.71 1.097-7.07 1.626-8.246 1.878-16.388 3.937-24.469 6.43-13.74 4.144-27.365 6.773-41.75 6.937l-2.848.056c-9.687-.088-17.897-3.876-24.902-10.556-7.515-9.282-9.157-18.167-8-30 1.601-5.823 5.288-8.531 10.375-11.5 8.194-3.66 16.498-4.22 25.047-1.352 3.283 1.485 6.424 3.111 9.578 4.852 13.14 6.928 24.99 10.176 39.875 10.188l2.566.037c7.647.017 14.78-.935 21.621-4.537l2.543-1.336c2.798-1.58 5.49-3.281 8.18-5.036 3.705-2.202 7.652-3.921 11.578-5.691 3.132-1.93 4.185-3.256 5.637-6.625.36-2.447.625-4.909.813-7.375.567-5.566 1.518-9.4 5.554-13.426 4.123-3.028 7.504-3.496 12.512-3.758 2.557-.532 3.473-1.467 5.121-3.441"/>
        <path fill="#A7B62C" d="M1409 350c3.212 2.79 4.852 4.247 5.688 8.5 1.543 4.116 2.32 4.387 6.124 6.25q2.585 1.147 5.188 2.25c5.205 2.715 8.854 6.456 11 12v4l-3.75.063-2.11.035c-2.14-.098-2.14-.098-4.097-.594-5.036-1.242-12.193-1.358-17.043.496-2.698 1.872-2.698 1.872-4 5 .714 4.524 2.476 8.214 5 12 5.813 2.716 11.542 3.3 17.871 2.813 2.129.187 2.129.187 3.477 1.687L1434 406l3.316-.25c3.684.25 3.684.25 5.281 1.516 1.583 1.839 2.968 3.733 4.34 5.734l1.495 1.965c3.456 4.841 4.29 8.108 3.568 14.035l-2 2a96 96 0 0 1-8.125-.875l-2.285-.316c-1.865-.26-3.728-.533-5.59-.809l1 3q-2.798-.362-5.594-.734c-2.402-.297-2.402-.297-4.812-.344-6.328-.28-9.95-2.148-15.188-5.621-3.663-1.98-6.329-1.754-10.406-1.301l.5 1.5c.707 3.534.56 6.897.5 10.5-3.72-.607-6.736-1.679-10.125-3.312-9.373-4.337-18.442-7.196-28.59-9.075L1358 423l-2.309-.32c-1.691-.68-1.691-.68-2.886-2.535l-.93-2.332-1.004-2.458a123 123 0 0 1-1.934-5.73c-.96-2.687-1.687-3.915-3.937-5.625-8.635-2.878-19.093-.547-27.937.375l-3.979.383-3.799.39-3.441.35c-3.035.34-3.035.34-5.844 2.502v-2c-5.619-1.95-11.211-3.632-17-5 3-2 3-2 5-2.875 2.502-1.407 3.511-2.667 5-5.125.361-2.818.361-2.818.188-5.75l-.083-2.984L1293 382l3.688-1.5c4.275-2.104 5.962-4.56 8.214-8.66 1.333-2.234 2.87-3.52 5.098-4.84l7 6 9-9c4.199 3.13 8.354 6.284 12.438 9.563 8.802 6.816 18.202 11.583 29.562 11.437l-1.709-.867c-22.681-11.63-22.681-11.63-26.291-19.133.44-2.123.44-2.123 1-4q6.31 3.044 12.598 6.134 2.138 1.047 4.283 2.08c2.061.994 4.114 2.004 6.166 3.016l1.926.917c6.35 3.173 9.02 7.642 12.277 13.728 3.831 6.648 8.142 12.308 15.75 14.563l3 .562c-1.874-4.617-3.773-8.917-6.75-12.937C1388 386 1388 386 1388 384c2.995-.872 5.636-1.108 8.75-1.062l2.422.027L1401 383a3004 3004 0 0 0-3.312-5.25l-1.864-2.953c-1.724-2.752-1.724-2.752-3.574-4.938-1.25-1.859-1.25-1.859-.937-5.359 2.044-4.24 3.565-4.789 7.726-6.531 2.78-1.373 4.148-3.508 5.961-5.969 2.25-1.312 2.25-1.312 4-2"/>
        <path fill="#FEFEFC" d="M1268 872c3.6 1.256 6.742 3.034 10 5l2.566 1.492A444 444 0 0 1 1288 883l2.266 1.316c4.107 2.427 6.981 4.67 9.734 8.684l-3 1a401 401 0 0 0-3 6c-1.5 2.375-1.5 2.375-4 4-5.193.595-10.114.228-15.187-.937-4.224-.07-4.63.175-7.626 2.812l-1.98 1.973c-2.46 2.398-5.097 4.388-7.832 6.465-8.173 6.678-12.003 14.534-14.375 24.687l-.539 2.186c-.565 3.448-.483 6.675-.383 10.17l.078 4.326c.043 2.247.094 4.493.166 6.74.28 9.038.329 16.981-5.322 24.578-3.338 3.356-5.75 4.844-10.5 5.438-8.934-1.117-14.293-4.17-19.895-11.184-3.77-6.195-3.524-13.267-2.605-20.254 3.414-13.018 12.472-24.097 20-35 11.109-16.12 11.109-16.12 19.441-33.785 4.895-13.006 9.366-21.954 24.559-20.215"/>
        <path fill="#FDFDFB" d="M1201 261c-.318 3.766-1.093 6.719-3 10-6.745 4.793-14.692 7.333-22.473 9.96-2.724 1.12-4.88 2.522-7.277 4.228-3.738 2.64-6.558 3.812-11.25 3.812l-1.86-1.004c-4.176-1.943-8.766-.983-13.14.004-2.915 2.12-4.568 4.407-6.672 7.297l-1.828 2.453-1.656 2.36c-2.225 2.28-3.724 2.57-6.844 2.89l.105 1.793c.17 4.926.142 8.21-3.105 12.207-3.1 1.55-5.579 1.29-9 1-4.441-2.804-5.88-5.388-7.5-10.312-2.493-6.886-4.616-12.406-11.375-16-7.844-3.493-7.844-3.493-16.125-2.688l-2 2c-6.462-.462-6.462-.462-9-3 .248-4.421 2.155-6.861 4.938-10.187l2.152-2.606c3.591-4.15 3.591-4.15 7.035-4.77 4.761.692 6.272 2.273 9.66 5.504 7.776 7.228 17.142 12.635 26.215 18.059l1.688-3.375c2.021-3.548 3.479-4.199 7.312-5.625 3.316-2.735 6.388-5.47 8-9.5 1.762-4.406 3.88-7.054 8-9.5 6.253-1.712 12.558-2.38 19-3l3.081-.308c12.308-1.193 24.55-2.054 36.919-1.692"/>
        <path fill="#FCFCFB" d="M1211 579c2.579 2.75 3.236 5.333 3.5 9-.118 3.481-.493 3.992-2.875 6.875L1209 597c-2.188 1.773-2.188 1.773-2.23 4.031.046 2.66.114 5.312.23 7.969l.09 2.566c.667 10.396 5.256 19.134 12.84 26.243 4.326 3.558 8.844 6.19 13.82 8.754 5.764 2.99 9.31 5.557 12.25 11.437.51 4.054.893 8.177-.941 11.922-3.35 4.243-6.87 5.786-12.11 6.484-6.519.188-11.24.089-16.195-4.422-9.556-10.81-14.21-25.119-19.496-38.336-3.664-8.98-8.318-16.653-14-24.515-2.508-3.48-3.448-5.193-3.633-9.383l-.148-2.266c.778-3.693 2.779-6.027 5.523-8.484 2.58-1.67 5.271-2.97 8.063-4.25l2.142-1.023q2.025-.966 4.057-1.91a105 105 0 0 0 4.043-2.024c2.724-1.274 4.75-1.232 7.695-.793"/>
        <path fill="#FDFDFC" d="m1317.688 721.063 3.842.006c10.519.259 10.519.259 14.83 3.494 2.663 2.824 3.433 5.352 3.353 9.31l-.15 2.065-.045 2.053c-.12 3.226-.52 6.016-1.54 9.08-1.434 4.877-1.169 9.722-1.067 14.762l.06 6.357q.066 4.966.146 9.933c.049 3.216.078 6.431.106 9.647l.066 2.959c.058 8.086-.908 16.626-6.663 22.771l-1.711 1.907c-4.682 3.898-9.465 3.966-15.317 3.847-3.258-.318-5.162-1.053-7.597-3.254-3.067-4.935-2.805-10.4-2-16 1.541-3.407 3.616-6.133 6-9 7.1-8.542 12.076-18.294 11.468-29.675-1.428-12.387-1.428-12.387-7.922-22.38-2.608-1.302-2.608-1.302-5.242-2.058-2.901-1.116-3.8-2.186-5.304-4.886-.512-2.579-.512-2.579-.688-5.25-.066-.893-.131-1.785-.2-2.704l-.112-2.047c4.512-2.256 10.748-1.048 15.687-.937"/>
        <path fill="#FBFBFA" d="M1196 403c4.56 3.59 6.031 7.265 7.5 12.688 2.9 9.703 7.358 18.48 12.006 27.451l1.666 3.22 1.503 2.859c2.671 5.609 4.128 10.604 3.325 16.782-1.611 4.19-3.568 7.104-7 10-3.72 1.24-7.15 1.818-11 1-2.73-2.17-4.443-4.885-6-8-.353-7.176-.353-7.176.988-10.309 2.585-6.875 2.087-16.28-.926-22.941A277 277 0 0 0 1196 432l-1-3-1.75-.812c-2.25-1.188-2.25-1.188-4.375-4.313-1.191-1.686-1.191-1.686-2.875-2.875-2.618-.272-5.067-.125-7.691.035C1176 421 1176 421 1173.5 419.312c-1.541-2.376-2.605-4.628-3.5-7.312 17.356-11.54 17.356-11.54 26-9"/>
        <path fill="#FDFDFA" d="M1068 359c4.237 2.472 4.237 2.472 6 5 .117 2.652.117 2.652-.125 5.688-.267 5.156.47 7.7 3.625 11.812 5.926 6.534 12.122 9.22 20.875 9.676q3.624.135 7.25.25c3.916.666 5.6 1.778 8.375 4.574 1.228 3.606 1.364 5.217-.25 8.688-3.288 4.345-5.25 5.955-10.812 6.75-9.203-1.023-15.707-7.88-22.318-13.83-5.015-4.384-10.368-7.553-16.378-10.402-3.482-1.75-5.622-3.25-7.25-6.76-1.03-3.58-1-5.173.707-8.473 3.01-4.564 6.429-9.1 10.301-12.973"/>
        <path fill="#8E9C45" d="M502.188 1147.938c5.25 1.463 7.147 4.464 9.813 9.063 2.258 6.775 1.034 12.335-1.72 18.726-2.23 3.96-5.214 6.24-9.28 8.274-6.482.82-11.66-.184-17-4-3.559-3.462-5.84-6.504-6.375-11.5.08-5.527 2.343-9.97 5.375-14.5 4.123-3.843 7.706-4.506 13.144-4.825 2.9-.274 2.612-1.17 6.043-1.238"/>
        <path fill="#FDFDFA" d="m1175 953 .184 2.45.254 3.237c.08 1.056.162 2.112.246 3.2.28 2.764.718 5.402 1.316 8.113l2.012-.324c7.145-.97 7.145-.97 10.676.261 3.41 3.041 6.898 6.157 9.312 10.063-.207 2.176-.207 2.176-1 4-3.474 2.78-7.776 2.33-12 2-3.804-.682-7.517-1.627-11.25-2.625l-3.07-.807c-7.43-2.035-14.067-4.557-20.68-8.568a779 779 0 0 1 6-8l2.313-3.062C1168.404 953 1168.404 953 1175 953"/>
        <path fill="#FCFDF9" d="M1532 702c5.01 15.032-13.882 42.966-20.375 56.125-7.259 14.392-7.259 14.392-12.625 18.875h-3v-2l4-2c-1.038-2.236-2.033-4.04-3.625-5.937C1495 765 1495 765 1494.438 762.5c.562-2.5.562-2.5 3.437-4.812C1501 756 1501 756 1503 756l.313-3.437c.49-3.983 1.596-7.501 2.925-11.274 2.09-6.281 3.046-12.728 3.762-19.289l3.145-.113c4.982-1.146 6.531-3.145 9.543-7.074l1.392-1.713c2.862-3.564 5.436-7.266 7.92-11.1"/>
        <path fill="#8F9D46" d="M807.188 1121.5c3.993 3.549 6.274 7.27 7.16 12.586.26 5.889-1.679 9.727-5.16 14.289-3.507 2.605-6.54 1.831-10.687 1.313-4.565-1.256-7.652-2.725-10.813-6.313-2.674-5.348-3.468-9.943-1.625-15.687 5.066-7.027 13.12-9.955 21.125-6.188"/>
        <path fill="#C6D434" d="m1141 268-4.492 4.2c-1.646 1.77-1.646 1.77-2.461 4.241-1.206 2.949-2.665 4.578-4.922 6.809l-2.055 2.078c-2.07 1.672-2.07 1.672-4.218 2.184L1121 288c-1.793 3.488-1.793 3.488-3 7a269 269 0 0 1-14.75-8.5l-2.672-1.656c-2.842-2.033-5.172-4.317-7.578-6.844 10.093-3.542 20.303-6.1 30.75-8.375l3.751-.833 3.546-.753 3.182-.681c2.657-.343 4.268-.227 6.771.642"/>
        <path fill="#FEFEFB" d="M1175 1107c3.175 2.093 4.885 3.827 7 7 .597 4.571.529 8.73-1.25 13-2.329 2.661-4.429 3.797-7.934 4.336-4.06.07-6.26 0-9.816-2.149-3.338-3.65-3.343-7.243-3.281-11.968.428-3.375 1.814-4.952 4.281-7.219 3.702-2.826 6.358-3.677 11-3"/>
        <path fill="#FCFDF6" d="M1312.875 864.438c3.872.697 6.061 2.125 9.125 4.563 2.179 3.267 2.722 4.209 2 8-3.295 3.616-4.741 4.848-9.625 5.437-3.058-.396-4.882-.683-7.375-2.437-2-3-2-3-1.875-6.375 1.19-4.93 2.5-8.16 7.75-9.188"/>
        <path fill="#93A04C" d="M491.563 1192.375c3.438.625 3.438.625 5.938 2.188 1.5 2.437 1.5 2.437 1.625 5.874-1.428 4.522-3.193 5.992-7.125 8.563-3.089 1.176-4.259 1.3-7.313.063-2.12-2.593-2.316-4.68-2.133-7.989 1.09-5.079 3.814-7.788 9.008-8.699"/>
        <path fill="#97A452" d="m481.688 1219.313 2.387.3c1.925.388 1.925.388 2.925 1.388.382 3.969.36 6.338-1.562 9.875-3.185 2.776-5.245 3.125-9.437 3.125-2.375-1.063-2.375-1.063-4-3-.93-3.122-1.27-5.12-.313-8.25 2.708-3.611 5.709-4.027 10-3.438"/>
        <path fill="#A1AF35" d="M1445 355c3.89 1.596 6.368 4.11 9.324 7.059l1.533 1.526q1.605 1.604 3.204 3.216a930 930 0 0 0 4.812 4.799c6.498 6.49 12.415 13.2 18.127 20.4a284 284 0 0 0 2.61 3.066c5.082 5.928 9.796 12.06 14.39 18.372l1.71 2.332c2.606 3.62 4.922 6.93 6.29 11.23-4.428-4.178-8.06-8.793-11.75-13.625q-1.875-2.433-3.754-4.863c-.602-.78-1.204-1.56-1.825-2.362-3.466-4.459-7.05-8.816-10.671-13.15l-1.267-1.524c-9.195-11.05-18.74-21.68-29.026-31.732A233 233 0 0 1 1445 356z"/>
        <path fill="#F4F5F1" d="m1209 554 3 2c.665 4.409.475 6.329-2.125 10-2.875 2-2.875 2-6 2.063-3.28-1.213-4.32-1.955-5.875-5.063-.5-2.5-.5-2.5 0-5 3.44-3.743 5.978-4.655 11-4"/>
        <path fill="#97A453" d="M796 1098c3.181.848 5.456 1.456 7.813 3.813 1.344 2.476 1.97 4.375 2.187 7.187-2 3-2 3-5.375 3.938-3.625.062-3.625.062-6-1.438-2.135-3.285-2.625-5.588-2.625-9.5 1.938-2.437 1.938-2.437 4-4"/>
        <path fill="#F7F7F4" d="M1303 698c2.375 1.125 2.375 1.125 4 3 .5 3.352.327 5.31-1.125 8.375C1304 711 1304 711 1301.063 711.5c-3.741-.61-4.846-1.462-7.063-4.5-1-2.5-1-2.5-1-5 2.769-4.098 5.2-4.7 10-4"/>
        <path fill="#97A453" d="M794 1078c2.438 2.063 2.438 2.063 4 5-.25 3.813-.25 3.813-1 7-7.28.485-7.28.485-10.5-1.687-1.793-2.764-2.08-4.081-1.5-7.313 2.258-3.638 4.976-3.657 9-3"/>
        <path fill="#A9B63B" d="M1377 307c5.271 1.487 9.515 3.886 14.125 6.75l2.359 1.458c40.188 25.136 40.188 25.136 44.516 33.792-3.667-1.62-6.552-3.894-9.687-6.375-14.56-11.348-29.89-21.45-45.648-31.047l-2.224-1.363-2.005-1.22L1377 308z"/>
        <path fill="#9CA85B" d="M466.125 1239.063c2.875.938 2.875.938 5.875 2.938-1.386 3.348-2.76 5.29-6 7-3.125-.063-3.125-.063-6-1-1.375-2.063-1.375-2.063-2-4 4.16-5.017 4.16-5.017 8.125-4.938"/>
        <path fill="#F3F3EF" d="M1166 396c2 2 2 2 2.375 4.438-.375 2.562-.375 2.562-2.062 4.437-2.886 1.404-4.3 1.046-7.313.125v-2h-2c-.25-2.312-.25-2.312 0-5 2.924-3.25 4.95-3.386 9-2"/>
        <path fill="#FCFDF5" d="M1178.063 1136.813c2.938.188 2.938.188 3.938 1.188.358 6.461.358 6.461-2 10-3.125.187-3.125.187-6 0-1.507-3.014-1.178-5.683-1-9 2-2 2-2 5.062-2.188"/>
        <path fill="#9DAA5E" d="M449.625 1251.063c3.375.938 3.375.938 5.375 3.938-3.7 3.61-3.7 3.61-6 5-3.375-.188-3.375-.188-6-1-.75-1.75-.75-1.75-1-4 2.302-3.549 3.354-4.012 7.625-3.938"/>
        <path fill="#FCFDF7" d="M1182 1157c.25 5.625.25 5.625-2 9-3.062.25-3.062.25-6 0-1-1-1-1-1.187-3.937C1173 1159 1173 1159 1175 1157c3.007-1.067 3.852-1.05 7 0"/>
        <path fill="#9AA759" d="M784 1065c3 3.207 3 3.207 3 6-2.799 1.4-4.905 1.253-8 1-1.937-1.25-1.937-1.25-3-3 .188-2.125.188-2.125 1-4 2.756-1.378 4.098-.92 7 0"/>
        <path fill="#F3F4F0" d="M1057.125 278.313c1.875.688 1.875.688 2.875 1.688.188 2.437.188 2.437 0 5-2 2-2 2-4.562 2.187-2.438-.187-2.438-.187-3.438-1.187-.25-2.938-.25-2.938 0-6 3-2 3-2 5.125-1.688"/>
        <path fill="#82895E" d="m215 818 2 1-24 24-2-1 1.285-1.25c3.194-3.145 6.253-6.33 9.153-9.75 3.03-3.525 6.315-6.557 9.863-9.555 1.795-1.488 1.795-1.488 3.699-3.445"/>
        <path fill="#9AA758" d="M765 1054c2.25-.25 2.25-.25 5 0 2.313 1.875 2.313 1.875 4 4v2c-2.763 1.381-4.947 1.19-8 1l-2-2c.375-2.625.375-2.625 1-5"/>
        <path fill="#FAFBED" d="M1297 860c3.625.375 3.625.375 7 1 .043 1.666.04 3.334 0 5l-1 1a177 177 0 0 1-7-1c-.625-1.875-.625-1.875-1-4z"/>
        <path fill="#82895E" d="m213 356 2 1-2.527 2.309C205.828 365.398 199.3 371.553 193 378c0-5.328 4.953-8.925 8.545-12.59 3.56-3.45 7.48-6.459 11.455-9.41"/>
        <path fill="#9DAB31" d="M1512 435c3.128 2.896 5.285 5.789 7.375 9.5l1.648 2.844c.977 2.656.977 2.656.141 5L1520 454q-1.725-3.623-3.437-7.25l-.987-2.066-.947-2.012-.873-1.84c-.793-1.92-1.3-3.808-1.756-5.832"/>
        <path fill="#FBFCF3" d="M1287.063 855.938c1.454.03 1.454.03 2.938.063l1 3-2 3c-2.625.187-2.625.187-5 0a88 88 0 0 1-1-5c1-1 1-1 4.062-1.063"/>
        <path fill="#FCFCF6" d="M1174.563 1172.938c1.207.03 1.207.03 2.438.063-.875 4.875-.875 4.875-2 6q-2.5.061-5 0c1.072-5.978 1.072-5.978 4.562-6.063"/>
        <path fill="#757D4D" d="M848 168c1.78 2.67 2.972 5.05 4.188 8l1.105 2.625C854 181 854 181 853 184c-3.124-2.556-4.032-5.127-5-9-.075-2.332-.093-4.669 0-7"/>
        <path fill="#FAFBEF" d="M1167.563 1184.938c1.207.03 1.207.03 2.438.063-.507 2.168-1 4-2 6l-5-1c1.124-4.98 1.124-4.98 4.562-5.063"/>
        <path fill="#F1F2ED" d="m1192 562 3 1-1 5-4 1c-.687-1.812-.687-1.812-1-4 1.438-1.75 1.438-1.75 3-3"/>
        <path fill="#F7F8F5" d="M1311 701h5l1 5h-5z"/>
        <path fill="#EFF0EB" d="m1322 703 5 1-1 5-4-1z"/>
        <path fill="#F4F5F1" d="M1186 569v5l-4 1-1-5c2-1 2-1 5-1"/>
        <path fill="#E3E4DA" d="m1170 393 5 1-1 3h-5z"/>
        <path fill="#F6F7F2" d="M1273 856h5l-1 4h-4z"/>
        <path fill="#E6E7DE" d="M1178 391c2.063.438 2.063.438 4 1l-1 4-3-1-1-3z"/>
        <path fill="#8D936C" d="m848 285 3 3h-3z"/>
        <path fill="#B1B69B" d="m452 1304 4 1Z"/>
        <path fill="#DDE2C7" d="m411 1160 2 1Z"/>
    </g>
</svg>